<mxfile host="Electron" agent="Mozilla/5.0 (Macintosh; Intel Mac OS X 10_15_7) AppleWebKit/537.36 (KHTML, like Gecko) draw.io/24.7.17 Chrome/128.0.6613.36 Electron/32.0.1 Safari/537.36" version="24.7.17">
  <diagram name="Page-1" id="opDDv9DNqInuCAKxjelx">
    <mxGraphModel dx="2091" dy="1106" grid="1" gridSize="10" guides="1" tooltips="1" connect="1" arrows="1" fold="1" page="1" pageScale="1" pageWidth="850" pageHeight="1100" math="0" shadow="0">
      <root>
        <mxCell id="0" />
        <mxCell id="1" parent="0" />
        <mxCell id="0ifpU9-hPzFAyu_cQy-y-8" value="Library" style="swimlane;fontStyle=0;childLayout=stackLayout;horizontal=1;startSize=30;horizontalStack=0;resizeParent=1;resizeParentMax=0;resizeLast=0;collapsible=1;marginBottom=0;whiteSpace=wrap;html=1;" parent="1" vertex="1">
          <mxGeometry x="610" y="480" width="140" height="60" as="geometry" />
        </mxCell>
        <mxCell id="0ifpU9-hPzFAyu_cQy-y-9" value="library_name {PK}" style="text;strokeColor=none;fillColor=none;align=left;verticalAlign=middle;spacingLeft=4;spacingRight=4;overflow=hidden;points=[[0,0.5],[1,0.5]];portConstraint=eastwest;rotatable=0;whiteSpace=wrap;html=1;" parent="0ifpU9-hPzFAyu_cQy-y-8" vertex="1">
          <mxGeometry y="30" width="140" height="30" as="geometry" />
        </mxCell>
        <mxCell id="V5qgfdtf59J9DypqSlSx-5" style="edgeStyle=orthogonalEdgeStyle;rounded=0;orthogonalLoop=1;jettySize=auto;html=1;entryX=0.5;entryY=0;entryDx=0;entryDy=0;" parent="1" source="0ifpU9-hPzFAyu_cQy-y-11" target="V5qgfdtf59J9DypqSlSx-1" edge="1">
          <mxGeometry relative="1" as="geometry" />
        </mxCell>
        <mxCell id="V5qgfdtf59J9DypqSlSx-6" value="Is available in&amp;nbsp;" style="edgeLabel;html=1;align=center;verticalAlign=middle;resizable=0;points=[];" parent="V5qgfdtf59J9DypqSlSx-5" vertex="1" connectable="0">
          <mxGeometry x="-0.225" y="2" relative="1" as="geometry">
            <mxPoint x="-50" y="6" as="offset" />
          </mxGeometry>
        </mxCell>
        <mxCell id="0ifpU9-hPzFAyu_cQy-y-11" value="Book" style="swimlane;fontStyle=0;childLayout=stackLayout;horizontal=1;startSize=30;horizontalStack=0;resizeParent=1;resizeParentMax=0;resizeLast=0;collapsible=1;marginBottom=0;whiteSpace=wrap;html=1;" parent="1" vertex="1">
          <mxGeometry x="338" y="490" width="140" height="240" as="geometry" />
        </mxCell>
        <mxCell id="0ifpU9-hPzFAyu_cQy-y-12" value="&lt;span style=&quot;text-align: center; text-wrap: nowrap;&quot;&gt;book_id {PK}&lt;/span&gt;" style="text;strokeColor=none;fillColor=none;align=left;verticalAlign=middle;spacingLeft=4;spacingRight=4;overflow=hidden;points=[[0,0.5],[1,0.5]];portConstraint=eastwest;rotatable=0;whiteSpace=wrap;html=1;" parent="0ifpU9-hPzFAyu_cQy-y-11" vertex="1">
          <mxGeometry y="30" width="140" height="30" as="geometry" />
        </mxCell>
        <mxCell id="0ifpU9-hPzFAyu_cQy-y-13" value="book_title {PAK}" style="text;strokeColor=none;fillColor=none;align=left;verticalAlign=middle;spacingLeft=4;spacingRight=4;overflow=hidden;points=[[0,0.5],[1,0.5]];portConstraint=eastwest;rotatable=0;whiteSpace=wrap;html=1;" parent="0ifpU9-hPzFAyu_cQy-y-11" vertex="1">
          <mxGeometry y="60" width="140" height="30" as="geometry" />
        </mxCell>
        <mxCell id="0ifpU9-hPzFAyu_cQy-y-64" value="description" style="text;strokeColor=none;fillColor=none;align=left;verticalAlign=middle;spacingLeft=4;spacingRight=4;overflow=hidden;points=[[0,0.5],[1,0.5]];portConstraint=eastwest;rotatable=0;whiteSpace=wrap;html=1;" parent="0ifpU9-hPzFAyu_cQy-y-11" vertex="1">
          <mxGeometry y="90" width="140" height="30" as="geometry" />
        </mxCell>
        <mxCell id="0ifpU9-hPzFAyu_cQy-y-78" value="release_date {PAK}" style="text;strokeColor=none;fillColor=none;align=left;verticalAlign=middle;spacingLeft=4;spacingRight=4;overflow=hidden;points=[[0,0.5],[1,0.5]];portConstraint=eastwest;rotatable=0;whiteSpace=wrap;html=1;" parent="0ifpU9-hPzFAyu_cQy-y-11" vertex="1">
          <mxGeometry y="120" width="140" height="30" as="geometry" />
        </mxCell>
        <mxCell id="mGlsRUlFsHcRN4EhqRFN-1" value="rating" style="text;strokeColor=none;fillColor=none;align=left;verticalAlign=middle;spacingLeft=4;spacingRight=4;overflow=hidden;points=[[0,0.5],[1,0.5]];portConstraint=eastwest;rotatable=0;whiteSpace=wrap;html=1;" parent="0ifpU9-hPzFAyu_cQy-y-11" vertex="1">
          <mxGeometry y="150" width="140" height="30" as="geometry" />
        </mxCell>
        <mxCell id="NR9AKKFF6x2JMnh_AYxC-1" value="&lt;blockquote style=&quot;margin: 0 0 0 40px; border: none; padding: 0px;&quot;&gt;comment&lt;/blockquote&gt;" style="text;strokeColor=none;fillColor=none;align=left;verticalAlign=middle;spacingLeft=4;spacingRight=4;overflow=hidden;points=[[0,0.5],[1,0.5]];portConstraint=eastwest;rotatable=0;whiteSpace=wrap;html=1;" parent="0ifpU9-hPzFAyu_cQy-y-11" vertex="1">
          <mxGeometry y="180" width="140" height="30" as="geometry" />
        </mxCell>
        <mxCell id="NR9AKKFF6x2JMnh_AYxC-2" value="&lt;blockquote style=&quot;margin: 0 0 0 40px; border: none; padding: 0px;&quot;&gt;value&lt;/blockquote&gt;" style="text;strokeColor=none;fillColor=none;align=left;verticalAlign=middle;spacingLeft=4;spacingRight=4;overflow=hidden;points=[[0,0.5],[1,0.5]];portConstraint=eastwest;rotatable=0;whiteSpace=wrap;html=1;" parent="0ifpU9-hPzFAyu_cQy-y-11" vertex="1">
          <mxGeometry y="210" width="140" height="30" as="geometry" />
        </mxCell>
        <mxCell id="0ifpU9-hPzFAyu_cQy-y-55" style="edgeStyle=orthogonalEdgeStyle;rounded=0;orthogonalLoop=1;jettySize=auto;html=1;" parent="1" edge="1">
          <mxGeometry relative="1" as="geometry">
            <mxPoint x="478" y="510" as="targetPoint" />
            <Array as="points">
              <mxPoint x="478" y="510" />
            </Array>
            <mxPoint x="610" y="510" as="sourcePoint" />
          </mxGeometry>
        </mxCell>
        <mxCell id="0ifpU9-hPzFAyu_cQy-y-56" value="Contains" style="edgeLabel;html=1;align=center;verticalAlign=middle;resizable=0;points=[];" parent="0ifpU9-hPzFAyu_cQy-y-55" vertex="1" connectable="0">
          <mxGeometry x="-0.493" relative="1" as="geometry">
            <mxPoint x="-16" y="-10" as="offset" />
          </mxGeometry>
        </mxCell>
        <mxCell id="0ifpU9-hPzFAyu_cQy-y-31" value="Author" style="swimlane;fontStyle=0;childLayout=stackLayout;horizontal=1;startSize=30;horizontalStack=0;resizeParent=1;resizeParentMax=0;resizeLast=0;collapsible=1;marginBottom=0;whiteSpace=wrap;html=1;" parent="1" vertex="1">
          <mxGeometry x="298" y="200" width="140" height="180" as="geometry" />
        </mxCell>
        <mxCell id="0ifpU9-hPzFAyu_cQy-y-32" value="&lt;span style=&quot;text-align: center; text-wrap: nowrap;&quot;&gt;author_id {PK}&lt;/span&gt;" style="text;strokeColor=none;fillColor=none;align=left;verticalAlign=middle;spacingLeft=4;spacingRight=4;overflow=hidden;points=[[0,0.5],[1,0.5]];portConstraint=eastwest;rotatable=0;whiteSpace=wrap;html=1;" parent="0ifpU9-hPzFAyu_cQy-y-31" vertex="1">
          <mxGeometry y="30" width="140" height="30" as="geometry" />
        </mxCell>
        <mxCell id="0ifpU9-hPzFAyu_cQy-y-33" value="name {AK}" style="text;strokeColor=none;fillColor=none;align=left;verticalAlign=middle;spacingLeft=4;spacingRight=4;overflow=hidden;points=[[0,0.5],[1,0.5]];portConstraint=eastwest;rotatable=0;whiteSpace=wrap;html=1;" parent="0ifpU9-hPzFAyu_cQy-y-31" vertex="1">
          <mxGeometry y="60" width="140" height="30" as="geometry" />
        </mxCell>
        <mxCell id="0ifpU9-hPzFAyu_cQy-y-37" value="&lt;span style=&quot;white-space: pre;&quot;&gt;&#x9;&lt;/span&gt;first_name {PAK}" style="text;strokeColor=none;fillColor=none;align=left;verticalAlign=middle;spacingLeft=4;spacingRight=4;overflow=hidden;points=[[0,0.5],[1,0.5]];portConstraint=eastwest;rotatable=0;whiteSpace=wrap;html=1;" parent="0ifpU9-hPzFAyu_cQy-y-31" vertex="1">
          <mxGeometry y="90" width="140" height="30" as="geometry" />
        </mxCell>
        <mxCell id="0ifpU9-hPzFAyu_cQy-y-38" value="&lt;span style=&quot;white-space: pre;&quot;&gt;&#x9;&lt;/span&gt;last_name {PAK}" style="text;strokeColor=none;fillColor=none;align=left;verticalAlign=middle;spacingLeft=4;spacingRight=4;overflow=hidden;points=[[0,0.5],[1,0.5]];portConstraint=eastwest;rotatable=0;whiteSpace=wrap;html=1;" parent="0ifpU9-hPzFAyu_cQy-y-31" vertex="1">
          <mxGeometry y="120" width="140" height="30" as="geometry" />
        </mxCell>
        <mxCell id="0ifpU9-hPzFAyu_cQy-y-36" value="email_address {AK}" style="text;strokeColor=none;fillColor=none;align=left;verticalAlign=middle;spacingLeft=4;spacingRight=4;overflow=hidden;points=[[0,0.5],[1,0.5]];portConstraint=eastwest;rotatable=0;whiteSpace=wrap;html=1;" parent="0ifpU9-hPzFAyu_cQy-y-31" vertex="1">
          <mxGeometry y="150" width="140" height="30" as="geometry" />
        </mxCell>
        <mxCell id="0ifpU9-hPzFAyu_cQy-y-43" style="edgeStyle=orthogonalEdgeStyle;rounded=0;orthogonalLoop=1;jettySize=auto;html=1;entryX=0.214;entryY=-0.002;entryDx=0;entryDy=0;entryPerimeter=0;" parent="1" source="0ifpU9-hPzFAyu_cQy-y-31" target="0ifpU9-hPzFAyu_cQy-y-11" edge="1">
          <mxGeometry relative="1" as="geometry" />
        </mxCell>
        <mxCell id="0ifpU9-hPzFAyu_cQy-y-44" value="Writes" style="edgeLabel;html=1;align=center;verticalAlign=middle;resizable=0;points=[];" parent="0ifpU9-hPzFAyu_cQy-y-43" vertex="1" connectable="0">
          <mxGeometry x="0.0766" y="3" relative="1" as="geometry">
            <mxPoint x="19" y="-4" as="offset" />
          </mxGeometry>
        </mxCell>
        <mxCell id="0ifpU9-hPzFAyu_cQy-y-51" value="Genre" style="swimlane;fontStyle=0;childLayout=stackLayout;horizontal=1;startSize=30;horizontalStack=0;resizeParent=1;resizeParentMax=0;resizeLast=0;collapsible=1;marginBottom=0;whiteSpace=wrap;html=1;" parent="1" vertex="1">
          <mxGeometry x="613" y="630" width="140" height="60" as="geometry" />
        </mxCell>
        <mxCell id="0ifpU9-hPzFAyu_cQy-y-52" value="genre_name {PK}" style="text;strokeColor=none;fillColor=none;align=left;verticalAlign=middle;spacingLeft=4;spacingRight=4;overflow=hidden;points=[[0,0.5],[1,0.5]];portConstraint=eastwest;rotatable=0;whiteSpace=wrap;html=1;" parent="0ifpU9-hPzFAyu_cQy-y-51" vertex="1">
          <mxGeometry y="30" width="140" height="30" as="geometry" />
        </mxCell>
        <mxCell id="0ifpU9-hPzFAyu_cQy-y-57" value="Series" style="swimlane;fontStyle=0;childLayout=stackLayout;horizontal=1;startSize=30;horizontalStack=0;resizeParent=1;resizeParentMax=0;resizeLast=0;collapsible=1;marginBottom=0;whiteSpace=wrap;html=1;" parent="1" vertex="1">
          <mxGeometry x="80" y="570" width="140" height="90" as="geometry" />
        </mxCell>
        <mxCell id="0ifpU9-hPzFAyu_cQy-y-58" value="&lt;span style=&quot;text-align: center; text-wrap: nowrap;&quot;&gt;series_id {PK}&lt;/span&gt;" style="text;strokeColor=none;fillColor=none;align=left;verticalAlign=middle;spacingLeft=4;spacingRight=4;overflow=hidden;points=[[0,0.5],[1,0.5]];portConstraint=eastwest;rotatable=0;whiteSpace=wrap;html=1;" parent="0ifpU9-hPzFAyu_cQy-y-57" vertex="1">
          <mxGeometry y="30" width="140" height="30" as="geometry" />
        </mxCell>
        <mxCell id="0ifpU9-hPzFAyu_cQy-y-59" value="series_name {AK}" style="text;strokeColor=none;fillColor=none;align=left;verticalAlign=middle;spacingLeft=4;spacingRight=4;overflow=hidden;points=[[0,0.5],[1,0.5]];portConstraint=eastwest;rotatable=0;whiteSpace=wrap;html=1;" parent="0ifpU9-hPzFAyu_cQy-y-57" vertex="1">
          <mxGeometry y="60" width="140" height="30" as="geometry" />
        </mxCell>
        <mxCell id="0ifpU9-hPzFAyu_cQy-y-94" style="edgeStyle=orthogonalEdgeStyle;rounded=0;orthogonalLoop=1;jettySize=auto;html=1;exitX=0.498;exitY=1.044;exitDx=0;exitDy=0;exitPerimeter=0;" parent="1" source="0ifpU9-hPzFAyu_cQy-y-93" edge="1">
          <mxGeometry relative="1" as="geometry">
            <mxPoint x="150" y="400" as="sourcePoint" />
            <mxPoint x="338" y="510" as="targetPoint" />
            <Array as="points">
              <mxPoint x="150" y="510" />
            </Array>
          </mxGeometry>
        </mxCell>
        <mxCell id="0ifpU9-hPzFAyu_cQy-y-96" value="Publishes" style="edgeLabel;html=1;align=center;verticalAlign=middle;resizable=0;points=[];" parent="0ifpU9-hPzFAyu_cQy-y-94" vertex="1" connectable="0">
          <mxGeometry x="0.2436" y="1" relative="1" as="geometry">
            <mxPoint x="4" y="-9" as="offset" />
          </mxGeometry>
        </mxCell>
        <mxCell id="0ifpU9-hPzFAyu_cQy-y-88" value="Publisher" style="swimlane;fontStyle=0;childLayout=stackLayout;horizontal=1;startSize=30;horizontalStack=0;resizeParent=1;resizeParentMax=0;resizeLast=0;collapsible=1;marginBottom=0;whiteSpace=wrap;html=1;" parent="1" vertex="1">
          <mxGeometry x="80" y="200" width="140" height="120" as="geometry" />
        </mxCell>
        <mxCell id="0ifpU9-hPzFAyu_cQy-y-89" value="&lt;span style=&quot;text-align: center; text-wrap: nowrap;&quot;&gt;publisher_id {PK}&lt;/span&gt;" style="text;strokeColor=none;fillColor=none;align=left;verticalAlign=middle;spacingLeft=4;spacingRight=4;overflow=hidden;points=[[0,0.5],[1,0.5]];portConstraint=eastwest;rotatable=0;whiteSpace=wrap;html=1;" parent="0ifpU9-hPzFAyu_cQy-y-88" vertex="1">
          <mxGeometry y="30" width="140" height="30" as="geometry" />
        </mxCell>
        <mxCell id="0ifpU9-hPzFAyu_cQy-y-90" value="publisher_name {AK}" style="text;strokeColor=none;fillColor=none;align=left;verticalAlign=middle;spacingLeft=4;spacingRight=4;overflow=hidden;points=[[0,0.5],[1,0.5]];portConstraint=eastwest;rotatable=0;whiteSpace=wrap;html=1;" parent="0ifpU9-hPzFAyu_cQy-y-88" vertex="1">
          <mxGeometry y="60" width="140" height="30" as="geometry" />
        </mxCell>
        <mxCell id="0ifpU9-hPzFAyu_cQy-y-93" value="email_address {AK}" style="text;strokeColor=none;fillColor=none;align=left;verticalAlign=middle;spacingLeft=4;spacingRight=4;overflow=hidden;points=[[0,0.5],[1,0.5]];portConstraint=eastwest;rotatable=0;whiteSpace=wrap;html=1;" parent="0ifpU9-hPzFAyu_cQy-y-88" vertex="1">
          <mxGeometry y="90" width="140" height="30" as="geometry" />
        </mxCell>
        <mxCell id="0ifpU9-hPzFAyu_cQy-y-102" value="0..*" style="text;html=1;align=center;verticalAlign=middle;resizable=0;points=[];autosize=1;strokeColor=none;fillColor=none;" parent="1" vertex="1">
          <mxGeometry x="573" y="520" width="40" height="30" as="geometry" />
        </mxCell>
        <mxCell id="0ifpU9-hPzFAyu_cQy-y-103" value="0..*" style="text;html=1;align=center;verticalAlign=middle;resizable=0;points=[];autosize=1;strokeColor=none;fillColor=none;" parent="1" vertex="1">
          <mxGeometry x="478" y="520" width="40" height="30" as="geometry" />
        </mxCell>
        <mxCell id="0ifpU9-hPzFAyu_cQy-y-104" value="1..1" style="text;html=1;align=center;verticalAlign=middle;resizable=0;points=[];autosize=1;strokeColor=none;fillColor=none;" parent="1" vertex="1">
          <mxGeometry x="328" y="380" width="40" height="30" as="geometry" />
        </mxCell>
        <mxCell id="0ifpU9-hPzFAyu_cQy-y-105" value="1..*" style="text;html=1;align=center;verticalAlign=middle;resizable=0;points=[];autosize=1;strokeColor=none;fillColor=none;" parent="1" vertex="1">
          <mxGeometry x="328.00000000000006" y="460" width="40" height="30" as="geometry" />
        </mxCell>
        <mxCell id="0ifpU9-hPzFAyu_cQy-y-106" value="0..*" style="text;html=1;align=center;verticalAlign=middle;resizable=0;points=[];autosize=1;strokeColor=none;fillColor=none;" parent="1" vertex="1">
          <mxGeometry x="478" y="590" width="40" height="30" as="geometry" />
        </mxCell>
        <mxCell id="0ifpU9-hPzFAyu_cQy-y-107" value="0..*" style="text;html=1;align=center;verticalAlign=middle;resizable=0;points=[];autosize=1;strokeColor=none;fillColor=none;" parent="1" vertex="1">
          <mxGeometry x="640" y="600" width="40" height="30" as="geometry" />
        </mxCell>
        <mxCell id="0ifpU9-hPzFAyu_cQy-y-108" value="1..1" style="text;html=1;align=center;verticalAlign=middle;resizable=0;points=[];autosize=1;strokeColor=none;fillColor=none;" parent="1" vertex="1">
          <mxGeometry x="110" y="380" width="40" height="30" as="geometry" />
        </mxCell>
        <mxCell id="0ifpU9-hPzFAyu_cQy-y-109" value="1..*" style="text;html=1;align=center;verticalAlign=middle;resizable=0;points=[];autosize=1;strokeColor=none;fillColor=none;" parent="1" vertex="1">
          <mxGeometry x="298.00000000000006" y="510" width="40" height="30" as="geometry" />
        </mxCell>
        <mxCell id="0ifpU9-hPzFAyu_cQy-y-110" value="0..1" style="text;html=1;align=center;verticalAlign=middle;resizable=0;points=[];autosize=1;strokeColor=none;fillColor=none;" parent="1" vertex="1">
          <mxGeometry x="218" y="610" width="40" height="30" as="geometry" />
        </mxCell>
        <mxCell id="0ifpU9-hPzFAyu_cQy-y-111" value="1..*" style="text;html=1;align=center;verticalAlign=middle;resizable=0;points=[];autosize=1;strokeColor=none;fillColor=none;" parent="1" vertex="1">
          <mxGeometry x="298.00000000000006" y="610" width="40" height="30" as="geometry" />
        </mxCell>
        <mxCell id="0ifpU9-hPzFAyu_cQy-y-115" style="edgeStyle=orthogonalEdgeStyle;rounded=0;orthogonalLoop=1;jettySize=auto;html=1;entryX=0.003;entryY=0.662;entryDx=0;entryDy=0;entryPerimeter=0;" parent="1" target="0ifpU9-hPzFAyu_cQy-y-64" edge="1">
          <mxGeometry relative="1" as="geometry">
            <mxPoint x="216" y="600" as="sourcePoint" />
            <Array as="points">
              <mxPoint x="216" y="600" />
              <mxPoint x="221" y="600" />
            </Array>
          </mxGeometry>
        </mxCell>
        <mxCell id="0ifpU9-hPzFAyu_cQy-y-119" value="Consists of" style="edgeLabel;html=1;align=center;verticalAlign=middle;resizable=0;points=[];" parent="0ifpU9-hPzFAyu_cQy-y-115" vertex="1" connectable="0">
          <mxGeometry x="-0.2774" relative="1" as="geometry">
            <mxPoint x="5" y="-10" as="offset" />
          </mxGeometry>
        </mxCell>
        <mxCell id="0ifpU9-hPzFAyu_cQy-y-116" style="edgeStyle=orthogonalEdgeStyle;rounded=0;orthogonalLoop=1;jettySize=auto;html=1;entryX=0.999;entryY=0.329;entryDx=0;entryDy=0;entryPerimeter=0;" parent="1" source="0ifpU9-hPzFAyu_cQy-y-51" target="0ifpU9-hPzFAyu_cQy-y-64" edge="1">
          <mxGeometry relative="1" as="geometry">
            <mxPoint x="480" y="590" as="targetPoint" />
            <Array as="points">
              <mxPoint x="683" y="590" />
            </Array>
          </mxGeometry>
        </mxCell>
        <mxCell id="0ifpU9-hPzFAyu_cQy-y-117" value="Describes" style="edgeLabel;html=1;align=center;verticalAlign=middle;resizable=0;points=[];" parent="0ifpU9-hPzFAyu_cQy-y-116" vertex="1" connectable="0">
          <mxGeometry x="-0.2979" relative="1" as="geometry">
            <mxPoint x="23" y="-10" as="offset" />
          </mxGeometry>
        </mxCell>
        <mxCell id="V5qgfdtf59J9DypqSlSx-1" value="Format" style="swimlane;fontStyle=0;childLayout=stackLayout;horizontal=1;startSize=30;horizontalStack=0;resizeParent=1;resizeParentMax=0;resizeLast=0;collapsible=1;marginBottom=0;whiteSpace=wrap;html=1;" parent="1" vertex="1">
          <mxGeometry x="338" y="810" width="140" height="90" as="geometry" />
        </mxCell>
        <mxCell id="V5qgfdtf59J9DypqSlSx-2" value="&lt;span style=&quot;text-align: center; text-wrap: nowrap;&quot;&gt;format_type&lt;/span&gt;" style="text;strokeColor=none;fillColor=none;align=left;verticalAlign=middle;spacingLeft=4;spacingRight=4;overflow=hidden;points=[[0,0.5],[1,0.5]];portConstraint=eastwest;rotatable=0;whiteSpace=wrap;html=1;" parent="V5qgfdtf59J9DypqSlSx-1" vertex="1">
          <mxGeometry y="30" width="140" height="30" as="geometry" />
        </mxCell>
        <mxCell id="V5qgfdtf59J9DypqSlSx-3" value="url {PK}" style="text;strokeColor=none;fillColor=none;align=left;verticalAlign=middle;spacingLeft=4;spacingRight=4;overflow=hidden;points=[[0,0.5],[1,0.5]];portConstraint=eastwest;rotatable=0;whiteSpace=wrap;html=1;" parent="V5qgfdtf59J9DypqSlSx-1" vertex="1">
          <mxGeometry y="60" width="140" height="30" as="geometry" />
        </mxCell>
        <mxCell id="V5qgfdtf59J9DypqSlSx-7" value="0..*" style="text;html=1;align=center;verticalAlign=middle;resizable=0;points=[];autosize=1;strokeColor=none;fillColor=none;" parent="1" vertex="1">
          <mxGeometry x="410" y="780" width="40" height="30" as="geometry" />
        </mxCell>
        <mxCell id="V5qgfdtf59J9DypqSlSx-8" value="1..*" style="text;html=1;align=center;verticalAlign=middle;resizable=0;points=[];autosize=1;strokeColor=none;fillColor=none;" parent="1" vertex="1">
          <mxGeometry x="410" y="730" width="40" height="30" as="geometry" />
        </mxCell>
      </root>
    </mxGraphModel>
  </diagram>
</mxfile>
